<svg xmlns="http://www.w3.org/2000/svg" xmlns:xlink="http://www.w3.org/1999/xlink" viewBox="0 0 125.5 33">
  <path d="M 35.99 6.817 L 42.436 6.817 C 43.36 6.817 44.176 6.953 44.883 7.225 C 45.608 7.497 46.207 7.859 46.678 8.312 C 47.15 8.765 47.503 9.3 47.739 9.916 C 47.992 10.529 48.121 11.185 48.12 11.847 C 48.12 12.826 47.938 13.641 47.576 14.294 C 47.231 14.928 46.742 15.454 46.107 15.871 C 47.068 16.233 47.857 16.804 48.473 17.583 C 49.09 18.345 49.398 19.378 49.398 20.683 C 49.398 21.553 49.235 22.332 48.908 23.021 C 48.587 23.685 48.123 24.27 47.549 24.734 C 46.968 25.187 46.27 25.531 45.454 25.767 C 44.638 26.003 43.732 26.121 42.735 26.121 L 35.99 26.121 Z M 42.381 15.137 C 43.415 15.137 44.212 14.856 44.774 14.294 C 45.355 13.714 45.645 12.989 45.645 12.119 C 45.645 11.72 45.572 11.339 45.427 10.977 C 45.282 10.596 45.065 10.27 44.774 9.998 C 44.503 9.726 44.158 9.508 43.741 9.345 C 43.342 9.182 42.889 9.101 42.381 9.101 L 38.465 9.101 L 38.465 15.137 Z M 43.034 23.837 C 44.339 23.837 45.309 23.529 45.944 22.912 C 46.578 22.296 46.896 21.517 46.896 20.574 C 46.896 19.632 46.578 18.843 45.944 18.209 C 45.309 17.574 44.339 17.257 43.034 17.257 L 38.465 17.257 L 38.465 23.837 Z M 63.589 24.761 C 63.009 25.287 62.347 25.685 61.604 25.957 C 60.879 26.211 60.099 26.338 59.265 26.338 C 58.268 26.338 57.343 26.157 56.491 25.794 C 55.639 25.432 54.904 24.942 54.288 24.326 C 53.672 23.692 53.191 22.949 52.847 22.097 C 52.502 21.227 52.33 20.302 52.33 19.323 C 52.33 18.345 52.502 17.429 52.847 16.577 C 53.191 15.707 53.672 14.964 54.288 14.348 C 54.904 13.714 55.639 13.215 56.491 12.853 C 57.343 12.49 58.268 12.309 59.265 12.309 C 60.099 12.309 60.879 12.445 61.604 12.717 C 62.339 12.966 63.015 13.364 63.589 13.886 L 63.589 12.526 L 65.928 12.526 L 65.928 26.121 L 63.589 26.121 Z M 59.319 24.136 C 60.298 24.136 61.151 23.927 61.876 23.51 C 62.619 23.094 63.19 22.568 63.589 21.934 L 63.589 16.713 C 63.19 16.079 62.619 15.553 61.876 15.136 C 61.151 14.72 60.298 14.511 59.319 14.511 C 58.649 14.511 58.032 14.638 57.47 14.892 C 56.926 15.127 56.446 15.463 56.029 15.898 C 55.63 16.333 55.312 16.849 55.077 17.448 C 54.859 18.027 54.75 18.653 54.75 19.323 C 54.75 19.994 54.859 20.629 55.077 21.227 C 55.312 21.807 55.63 22.314 56.029 22.749 C 56.44 23.18 56.929 23.531 57.47 23.782 C 58.032 24.018 58.649 24.136 59.319 24.136 Z M 80.074 18.042 C 80.074 16.077 78.479 14.484 76.512 14.484 C 74.544 14.484 72.949 16.077 72.949 18.042 L 72.949 26.121 L 70.61 26.121 L 70.61 18.122 C 70.61 14.867 73.252 12.228 76.512 12.228 C 79.771 12.228 82.413 14.866 82.413 18.122 L 82.413 26.121 L 80.074 26.121 Z M 93.155 26.338 C 92.139 26.338 91.206 26.157 90.354 25.794 C 89.502 25.432 88.767 24.933 88.151 24.299 C 87.534 23.665 87.045 22.921 86.682 22.069 C 86.338 21.218 86.165 20.302 86.165 19.323 C 86.165 18.345 86.338 17.429 86.682 16.577 C 87.045 15.726 87.534 14.982 88.151 14.348 C 88.767 13.714 89.502 13.215 90.354 12.853 C 91.206 12.49 92.139 12.309 93.155 12.309 C 94.297 12.309 95.294 12.517 96.146 12.934 C 97.017 13.333 97.751 13.841 98.349 14.457 L 96.853 16.088 C 96.418 15.653 95.893 15.281 95.276 14.973 C 94.678 14.665 93.971 14.511 93.155 14.511 C 92.484 14.511 91.868 14.638 91.306 14.892 C 90.761 15.127 90.281 15.463 89.864 15.898 C 89.465 16.333 89.148 16.849 88.912 17.448 C 88.695 18.027 88.586 18.653 88.586 19.323 C 88.586 19.994 88.695 20.629 88.912 21.227 C 89.148 21.807 89.465 22.314 89.864 22.749 C 90.276 23.18 90.765 23.531 91.306 23.782 C 91.868 24.018 92.484 24.136 93.155 24.136 C 93.971 24.136 94.678 23.982 95.276 23.674 C 95.893 23.365 96.418 22.994 96.853 22.559 L 98.349 24.19 C 97.751 24.806 97.017 25.323 96.146 25.74 C 95.294 26.139 94.297 26.338 93.155 26.338 Z M 107.645 26.338 C 106.611 26.338 105.659 26.157 104.789 25.794 C 103.937 25.432 103.194 24.933 102.559 24.299 C 101.942 23.665 101.453 22.921 101.09 22.069 C 100.746 21.218 100.574 20.302 100.574 19.323 C 100.574 18.345 100.746 17.429 101.09 16.577 C 101.453 15.726 101.942 14.982 102.559 14.348 C 103.194 13.714 103.937 13.215 104.789 12.853 C 105.659 12.49 106.611 12.309 107.645 12.309 C 108.66 12.309 109.594 12.49 110.446 12.853 C 111.316 13.215 112.059 13.714 112.676 14.348 C 113.311 14.982 113.8 15.726 114.145 16.577 C 114.507 17.429 114.688 18.345 114.688 19.323 C 114.688 20.302 114.507 21.218 114.145 22.069 C 113.8 22.921 113.311 23.665 112.676 24.299 C 112.059 24.933 111.316 25.432 110.446 25.794 C 109.594 26.157 108.66 26.338 107.645 26.338 Z M 107.645 24.136 C 108.334 24.136 108.959 24.018 109.521 23.782 C 110.101 23.529 110.591 23.184 110.99 22.749 C 111.407 22.314 111.724 21.807 111.942 21.227 C 112.159 20.629 112.268 19.994 112.268 19.323 C 112.268 18.653 112.159 18.027 111.942 17.448 C 111.724 16.849 111.407 16.333 110.99 15.898 C 110.591 15.463 110.101 15.127 109.521 14.892 C 108.959 14.638 108.334 14.511 107.645 14.511 C 106.956 14.511 106.321 14.638 105.741 14.892 C 105.187 15.122 104.687 15.464 104.272 15.898 C 103.873 16.333 103.556 16.849 103.32 17.448 C 103.103 18.027 102.994 18.653 102.994 19.323 C 102.994 19.994 103.103 20.629 103.32 21.227 C 103.556 21.807 103.873 22.314 104.272 22.749 C 104.689 23.184 105.179 23.529 105.741 23.782 C 106.321 24.018 106.956 24.136 107.645 24.136 Z M 118.456 12.526 L 120.795 12.526 L 120.795 13.978 C 121.267 13.398 121.819 13.116 122.454 12.825 C 123.089 12.536 123.787 12.39 124.548 12.39 C 124.875 12.39 125.192 12.418 125.5 12.472 L 125.5 14.892 C 125.119 14.783 124.684 14.729 124.195 14.729 C 123.451 14.729 122.771 14.91 122.155 15.272 C 121.806 15.484 121.506 15.806 121.255 16.179 C 120.899 16.709 120.795 17.359 120.795 17.997 L 120.795 26.121 L 118.456 26.121 Z M 9.336 0 L 1.106 4.75 L 9.336 9.523 L 17.566 4.75 L 9.336 0 Z M 0 16.145 L 8.211 20.879 L 8.211 11.4 L 0 6.667 L 0 16.145 Z M 0 28.181 L 8.211 32.915 L 8.211 23.436 L 0 18.703 Z M 18.671 16.145 L 10.46 20.879 L 10.46 11.4 L 18.671 6.666 Z M 22.028 16.768 L 22.028 26.247 L 10.461 32.915 L 10.461 23.436 Z" fill="hsl(0, 0%, 100%)"></path>
</svg>