<svg xmlns="http://www.w3.org/2000/svg" xmlns:xlink="http://www.w3.org/1999/xlink" width="2000" zoomAndPan="magnify" viewBox="0 0 1500 1499.999933" height="2000" preserveAspectRatio="xMidYMid meet" version="1.0"><rect x="-150" width="1800" fill="#ffffff" y="-149.999993" height="1799.99992" fill-opacity="1"/><rect x="-150" width="1800" fill="#ffffff" y="-149.999993" height="1799.99992" fill-opacity="1"/><path fill="#000000" d="M 212.03125 550 L 452.0625 550 C 484.066406 550 500.066406 574 484.066406 598 L 344.046875 750 L 484.066406 902 C 500.066406 926 484.066406 950 452.0625 950 L 212.03125 950 C 172.027344 950 140.023438 918 140.023438 878 L 140.023438 622 C 140.023438 582 172.027344 550 212.03125 550 Z M 212.03125 550 " fill-opacity="1" fill-rule="nonzero"/><path fill="#000000" d="M 812.105469 550 L 1004.128906 890 C 1016.132812 910 1004.128906 950 972.125 950 L 652.085938 950 C 620.082031 950 608.082031 910 620.082031 890 Z M 812.105469 550 " fill-opacity="1" fill-rule="nonzero"/><path fill="#000000" d="M 1292.164062 550 C 1294.128906 550 1296.089844 550.097656 1298.046875 550.289062 C 1300.003906 550.480469 1301.945312 550.769531 1303.871094 551.152344 C 1305.800781 551.535156 1307.703125 552.015625 1309.585938 552.585938 C 1311.464844 553.15625 1313.3125 553.816406 1315.128906 554.566406 C 1316.945312 555.320312 1318.71875 556.160156 1320.453125 557.085938 C 1322.1875 558.011719 1323.871094 559.019531 1325.503906 560.113281 C 1327.136719 561.203125 1328.714844 562.375 1330.234375 563.621094 C 1331.753906 564.867188 1333.207031 566.183594 1334.597656 567.574219 C 1335.988281 568.964844 1337.304688 570.417969 1338.550781 571.9375 C 1339.796875 573.457031 1340.96875 575.03125 1342.058594 576.667969 C 1343.152344 578.300781 1344.160156 579.984375 1345.085938 581.714844 C 1346.015625 583.449219 1346.851562 585.222656 1347.605469 587.039062 C 1348.355469 588.855469 1349.019531 590.703125 1349.589844 592.582031 C 1350.160156 594.464844 1350.636719 596.367188 1351.019531 598.296875 C 1351.402344 600.222656 1351.691406 602.164062 1351.882812 604.121094 C 1352.078125 606.074219 1352.171875 608.035156 1352.171875 610 L 1352.171875 890 C 1352.171875 891.964844 1352.078125 893.925781 1351.882812 895.878906 C 1351.691406 897.835938 1351.402344 899.777344 1351.019531 901.703125 C 1350.636719 903.632812 1350.160156 905.535156 1349.589844 907.417969 C 1349.019531 909.296875 1348.355469 911.144531 1347.605469 912.960938 C 1346.851562 914.777344 1346.015625 916.550781 1345.085938 918.28125 C 1344.160156 920.015625 1343.152344 921.699219 1342.058594 923.332031 C 1340.96875 924.96875 1339.796875 926.542969 1338.550781 928.0625 C 1337.304688 929.582031 1335.988281 931.035156 1334.597656 932.425781 C 1333.207031 933.816406 1331.753906 935.132812 1330.234375 936.378906 C 1328.714844 937.625 1327.136719 938.796875 1325.503906 939.886719 C 1323.871094 940.980469 1322.1875 941.988281 1320.453125 942.914062 C 1318.71875 943.839844 1316.945312 944.679688 1315.128906 945.433594 C 1313.3125 946.183594 1311.464844 946.84375 1309.585938 947.414062 C 1307.703125 947.984375 1305.800781 948.460938 1303.871094 948.847656 C 1301.945312 949.230469 1300.003906 949.515625 1298.046875 949.710938 C 1296.089844 949.902344 1294.128906 950 1292.164062 950 C 1290.199219 950 1288.238281 949.902344 1286.285156 949.710938 C 1284.328125 949.515625 1282.386719 949.230469 1280.457031 948.847656 C 1278.53125 948.460938 1276.625 947.984375 1274.746094 947.414062 C 1272.867188 946.84375 1271.015625 946.183594 1269.203125 945.433594 C 1267.386719 944.679688 1265.609375 943.839844 1263.878906 942.914062 C 1262.144531 941.988281 1260.460938 940.980469 1258.828125 939.886719 C 1257.191406 938.796875 1255.617188 937.625 1254.097656 936.378906 C 1252.578125 935.132812 1251.125 933.816406 1249.734375 932.425781 C 1248.34375 931.035156 1247.027344 929.582031 1245.777344 928.0625 C 1244.53125 926.542969 1243.363281 924.96875 1242.269531 923.332031 C 1241.179688 921.699219 1240.171875 920.015625 1239.242188 918.28125 C 1238.316406 916.550781 1237.476562 914.777344 1236.726562 912.960938 C 1235.972656 911.144531 1235.3125 909.296875 1234.742188 907.417969 C 1234.171875 905.535156 1233.695312 903.632812 1233.3125 901.703125 C 1232.925781 899.777344 1232.640625 897.835938 1232.445312 895.878906 C 1232.253906 893.925781 1232.15625 891.964844 1232.15625 890 L 1232.15625 610 C 1232.15625 608.035156 1232.253906 606.074219 1232.445312 604.121094 C 1232.640625 602.164062 1232.925781 600.222656 1233.3125 598.296875 C 1233.695312 596.367188 1234.171875 594.464844 1234.742188 592.582031 C 1235.3125 590.703125 1235.972656 588.855469 1236.726562 587.039062 C 1237.476562 585.222656 1238.316406 583.449219 1239.242188 581.714844 C 1240.171875 579.984375 1241.179688 578.300781 1242.269531 576.667969 C 1243.363281 575.03125 1244.53125 573.457031 1245.777344 571.9375 C 1247.027344 570.417969 1248.34375 568.964844 1249.734375 567.574219 C 1251.125 566.183594 1252.578125 564.867188 1254.097656 563.621094 C 1255.617188 562.375 1257.191406 561.203125 1258.828125 560.113281 C 1260.460938 559.019531 1262.144531 558.011719 1263.878906 557.085938 C 1265.609375 556.160156 1267.386719 555.320312 1269.203125 554.566406 C 1271.015625 553.816406 1272.867188 553.15625 1274.746094 552.585938 C 1276.625 552.015625 1278.53125 551.535156 1280.457031 551.152344 C 1282.386719 550.769531 1284.328125 550.480469 1286.285156 550.289062 C 1288.238281 550.097656 1290.199219 550 1292.164062 550 Z M 1292.164062 550 " fill-opacity="1" fill-rule="nonzero"/></svg>