<svg width="189" height="93" viewBox="0 0 189 93" fill="none" xmlns="http://www.w3.org/2000/svg">
<g filter="url(#filter0_d_1532_1564)">
<path d="M68.6295 50.9545L55.5001 53.7667L53.3263 54.2859L54.1856 52.8503L51.537 39.5444L69.3123 22.0931L78.0508 19.922L72.6986 24.921L90.4857 21.4245L95.3553 16.1501V5.05078H10.8696L6 9.93181L13.2867 34.0734L47.8603 26.0066L30.5558 41.7116L19.0705 84.162H46.3966L51.2662 79.2849L68.6295 50.9584V50.9545ZM77.9566 19.5444L69.2181 21.7155L69.1161 21.743L69.0729 21.7548L71.7843 19.1196L71.8589 19.0449L71.9609 19.0174L81.6334 16.5277L83.5404 16.036L81.9669 17.2239L79.3496 19.1983L77.9606 19.5444H77.9566ZM94.9629 16.0046L90.2856 21.0705L73.97 24.276L78.3176 20.213L79.4046 19.1983L94.9629 15.8433V16.0046ZM47.77 25.625L13.5574 33.6093L6.4434 10.0419L11.0305 5.4441H94.9629H11.3993L18.4309 28.7283L53.1968 20.6142L54.6447 20.276L53.5499 21.2868L49.0021 25.3379L47.7739 25.625H47.77ZM49.3043 54.8601L53.7422 52.6379L53.7736 52.7834L52.9927 54.0892L52.514 54.8916L49.5711 55.5956L46.2475 56.3901L49.3043 54.8601ZM50.9562 79.0371L46.2358 83.7687H19.5846L30.9051 41.924L35.3979 37.8453L24.4541 78.8877H51.0465L50.9562 79.0371Z" fill="white"/>
<path d="M179.205 53.6408L181.383 50.0184L174.375 28.6614L170.243 28.5355L170.796 35.9731L163.396 32.6457L157.224 23.7174L159.445 24.3153L164.561 27.9928L168.128 27.7096L170.706 24.0911L153.998 8.12646L144.903 14.5926L141.387 18.1914L164.349 47.7883L179.209 53.6447L179.205 53.6408ZM153.527 17.8374L162.431 20.3192L162.501 20.3389L162.56 20.3821L167.379 23.9692L169.8 23.7686L170.184 24.1383L167.912 27.3281L164.671 27.5877L159.672 23.9928L159.613 23.9495L159.543 23.9298L157.322 23.332L156.286 23.0527L153.096 18.4392L152.476 17.5463L153.523 17.8374H153.527ZM145.158 14.8915L145.456 14.6791L167.292 43.4579L180.744 49.3379L180.951 49.9751L179.041 53.1609L164.589 47.4658L141.901 18.2268L145.154 14.8993L145.158 14.8915Z" fill="white"/>
<path d="M95.3907 55.7884L97.388 49.3341L102.199 56.9093L132.346 51.6822L135.917 48.0243L108.92 41.7234L110.447 40.9958L114.775 37.338L107.998 19.3989L76.8149 25.4442L71.1057 29.102L79.4911 36.7166L50.666 84.162L91.5061 61.4993L95.3907 55.7884ZM133.519 47.8749L135.148 48.2564L132.154 51.3242L102.387 56.4845L97.7176 49.1295L97.2781 48.4373L99.3735 41.6015L99.6835 40.5946L100.107 41.5583L104.161 50.809L133.523 47.8749H133.519ZM97.9923 31.2613L100.574 30.986L98.9654 33.3065L97.9923 31.2613ZM114.284 37.2436L110.231 40.6694L108.752 41.3734L107.739 41.8572L106.778 41.6369L106.597 41.5937L106.515 41.4245L106.346 41.0745L106.696 40.9014L114.288 37.2475L114.284 37.2436ZM96.6503 27.2337L105.785 26.2229L106.625 26.1285L106.154 26.8326L100.539 35.2259L100.154 35.8001L99.8561 35.1787L99.1616 33.7195L101.386 30.5101L97.8118 30.8916L96.3364 27.8001L96.097 27.3006L96.6464 27.2416L96.6503 27.2337ZM51.7726 83.1001L79.8285 36.9211L79.9972 36.6418L79.7579 36.4216L71.7531 29.1531L76.9641 25.8139L77.6429 25.6802L85.1768 32.7677L85.4044 32.984L85.2435 33.2554L61.6844 73.4364L95.0611 55.517L95.0337 55.6114L91.2314 61.2004L51.7686 83.0962L51.7726 83.1001Z" fill="white"/>
<path d="M104.011 8.62204L99.2871 12.2838L108.995 17.5149L118.55 42.097L140.724 47.6742L143.376 44.8148L156.521 47.0331L159.248 43.3713L134.704 11.9534L104.008 8.6181L104.011 8.62204ZM137.855 25.2042L137.977 25.4598L145.056 40.4883L158.314 42.8089L158.758 43.3792L156.353 46.6044L143.443 44.4254L143.235 44.39L143.09 44.5474L140.594 47.2376L118.844 41.7666L109.36 17.3733L109.309 17.2395L109.183 17.1727L100.005 12.2287L104.125 9.03502L105.895 9.22774L113.574 13.5149L113.7 13.5857L113.751 13.7194L123.015 38.1127L143.023 43.3281L129.16 26.8797L128.689 26.3212L129.411 26.2346L137.573 25.2474L137.855 25.212V25.2042ZM124.906 20.6378L127.461 19.9534L128.218 21.3929L125.424 21.4441H125.114L125.04 21.1491L124.91 20.6378H124.906ZM134.124 21.2907L128.654 21.389L127.657 19.4932L124.804 20.2563L124.263 18.1088L124.169 17.7351L124.537 17.6329L131.557 15.682L131.867 15.5955L132.013 15.8826L134.465 20.7164L134.747 21.275L134.12 21.2868L134.124 21.2907Z" fill="white"/>
<path d="M98.5639 80.8818L91.4303 66.0106H89.8489L86.9609 84.221H88.9111L91.2812 69.3262L98.3913 84.221H99.9962L102.884 66.0106H100.907L98.5639 80.8818Z" fill="white"/>
<path d="M113.777 71.4264C113.357 71.1472 112.859 70.9466 112.282 70.8325C111.705 70.7185 111.073 70.6595 110.383 70.6595C109.033 70.6595 107.899 70.8955 106.977 71.3635C106.055 71.8355 105.329 72.5238 104.791 73.4284C104.258 74.337 103.889 75.4579 103.693 76.7952C103.626 77.2239 103.563 77.6723 103.508 78.1443C103.449 78.6162 103.422 79.0961 103.422 79.5917C103.422 80.5985 103.602 81.4442 103.963 82.1285C104.324 82.8129 104.901 83.3321 105.69 83.686C106.479 84.04 107.507 84.217 108.774 84.217C109.63 84.217 110.461 84.1816 111.266 84.1069C112.07 84.0322 112.729 83.9614 113.239 83.8984L113.436 82.7106H109.437C107.974 82.7106 106.922 82.4746 106.29 82.0066C105.659 81.5346 105.341 80.7834 105.341 79.7411C105.341 79.4933 105.349 79.2416 105.364 78.9859C105.38 78.7303 105.403 78.4786 105.439 78.2308C105.753 78.3291 106.22 78.4156 106.847 78.4904C107.471 78.5651 108.174 78.6005 108.947 78.6005C109.72 78.6005 110.497 78.5376 111.23 78.4156C111.964 78.2937 112.62 78.0735 113.204 77.7588C113.789 77.4442 114.248 77.0036 114.585 76.4333C114.923 75.863 115.092 75.1433 115.092 74.2701C115.092 73.5779 114.978 72.9997 114.746 72.5395C114.515 72.0793 114.189 71.7057 113.773 71.4264H113.777ZM112.631 76.2524C112.219 76.6811 111.642 76.98 110.905 77.1452C110.163 77.3104 109.292 77.393 108.288 77.393C107.793 77.393 107.307 77.3694 106.832 77.3183C106.353 77.2672 105.933 77.22 105.572 77.1688C105.737 76.1148 105.988 75.2141 106.326 74.4707C106.663 73.7273 107.15 73.1649 107.781 72.7755C108.413 72.3901 109.233 72.1934 110.238 72.1934C111.242 72.1934 112.015 72.3665 112.51 72.7126C113.004 73.0587 113.251 73.6447 113.251 74.4707C113.251 75.2298 113.047 75.8237 112.635 76.2524H112.631Z" fill="white"/>
<path d="M122.182 67.3203H120.675L119.761 71.0056L117.563 71.3518L117.367 72.6143H119.466L118.356 79.2692C118.289 79.6507 118.234 80.0125 118.183 80.3586C118.132 80.7048 118.109 81.0509 118.109 81.397C118.109 82.3213 118.387 83.0214 118.949 83.5012C119.506 83.9811 120.338 84.2171 121.44 84.2171H123.092L123.339 82.7815L121.758 82.632C121.181 82.5809 120.757 82.4235 120.487 82.1482C120.216 81.8768 120.079 81.4757 120.079 80.9486C120.079 80.6851 120.102 80.4019 120.153 80.0951C120.2 79.7883 120.243 79.513 120.275 79.2652L121.338 72.6104H125.113L125.36 71.0017H121.585L122.178 67.3163L122.182 67.3203Z" fill="white"/>
<path d="M143.977 71.8237C143.886 72.1856 143.788 72.5278 143.682 72.8503C143.576 73.1728 143.474 73.4403 143.372 73.6527L139.523 82.2898L137.522 71.0056H136.113L131.397 82.2387L129.47 71.0056H127.469L129.937 84.2171H132.009L136.403 74.0971L138.205 84.2171H140.304L144.993 74.4668C145.158 74.1207 145.315 73.7352 145.464 73.3144C145.613 72.8936 145.731 72.4648 145.821 72.0283C145.911 71.5917 145.958 71.1826 145.958 70.8051H144.157C144.126 71.1197 144.063 71.458 143.973 71.8198L143.977 71.8237Z" fill="white"/>
<path d="M156.49 71.2298C155.791 70.8837 154.822 70.7106 153.59 70.7106C152.57 70.7106 151.679 70.809 150.926 71.0056C150.168 71.2023 149.521 71.5445 148.987 72.0322C148.454 72.5199 148.014 73.1924 147.665 74.0499C147.32 74.9073 147.041 75.9968 146.825 77.3144C146.758 77.7274 146.711 78.1325 146.676 78.5258C146.645 78.923 146.625 79.3281 146.625 79.7372C146.625 80.8109 146.821 81.6762 147.218 82.337C147.614 82.9978 148.171 83.4737 148.897 83.7726C149.619 84.0715 150.478 84.217 151.463 84.217C152.844 84.217 153.986 84.0361 154.881 83.6743C155.779 83.3124 156.494 82.6752 157.027 81.7706C157.561 80.8621 157.953 79.6035 158.201 77.9869C158.267 77.5071 158.322 77.0469 158.373 76.6025C158.424 76.158 158.448 75.7451 158.448 75.3635C158.448 74.3409 158.295 73.4835 157.993 72.7913C157.687 72.099 157.184 71.5799 156.486 71.2337L156.49 71.2298ZM156.427 76.3665C156.396 76.7559 156.337 77.1885 156.254 77.6644C156.089 78.687 155.885 79.5248 155.638 80.1777C155.391 80.8306 155.089 81.3341 154.724 81.688C154.363 82.042 153.935 82.2859 153.441 82.4196C152.946 82.5533 152.37 82.6163 151.714 82.6163C151.059 82.6163 150.537 82.5376 150.062 82.3803C149.584 82.2229 149.215 81.9358 148.952 81.515C148.689 81.0941 148.556 80.4806 148.556 79.6703C148.556 79.3714 148.571 79.0607 148.607 78.7303C148.638 78.3999 148.689 78.0459 148.756 77.6644C148.92 76.5592 149.121 75.6546 149.36 74.9545C149.599 74.2544 149.894 73.7116 150.247 73.334C150.6 72.9565 151.028 72.6851 151.53 72.5317C152.032 72.3744 152.629 72.2957 153.319 72.2957C154.453 72.2957 155.265 72.5238 155.752 72.9761C156.239 73.4284 156.482 74.1993 156.482 75.2888C156.482 75.6192 156.466 75.9771 156.431 76.3665H156.427Z" fill="white"/>
<path d="M167.606 70.8601C166.781 70.8601 166.032 71.0411 165.361 71.4029C164.686 71.7648 164.086 72.1777 163.56 72.6419L163.513 71.0096H161.857L159.785 84.221H161.735L163.317 74.1522C163.842 73.8218 164.427 73.5268 165.071 73.2594C165.714 72.9958 166.428 72.8621 167.217 72.8621C167.531 72.8621 167.829 72.8739 168.116 72.8975C168.402 72.9211 168.673 72.9604 168.916 73.0076L169.21 71.0293C168.998 70.9624 168.755 70.9191 168.481 70.8916C168.21 70.868 167.915 70.8562 167.606 70.8562V70.8601Z" fill="white"/>
<path d="M180.146 73.9634C180.64 73.1807 181.052 72.1935 181.382 71.0056H179.432C179.071 72.2446 178.584 73.2397 177.976 73.9988C177.368 74.7579 176.649 75.3203 175.829 75.6822C175.005 76.044 174.103 76.2603 173.114 76.3272L174.868 65.3419H172.894L169.908 84.221H171.882L172.894 77.8375C173.189 77.8375 173.554 77.8139 173.981 77.7628C174.409 77.7117 174.805 77.6409 175.166 77.5386L178.647 84.221H180.695L176.846 76.9447C177.438 76.6812 178.015 76.3154 178.572 75.8434C179.133 75.3714 179.659 74.7461 180.154 73.9634H180.146Z" fill="white"/>
<path d="M83.2029 84.2209L86.3027 66.6634L54.6211 84.2209H83.2029ZM85.2551 70.3527L69.6654 78.8915H83.7483L82.8772 83.8276H56.1475L85.7769 67.4068L85.2551 70.3527Z" fill="white"/>
</g>
<defs>
<filter id="filter0_d_1532_1564" x="0.798939" y="0.889933" width="187.865" height="91.6528" filterUnits="userSpaceOnUse" color-interpolation-filters="sRGB">
<feFlood flood-opacity="0" result="BackgroundImageFix"/>
<feColorMatrix in="SourceAlpha" type="matrix" values="0 0 0 0 0 0 0 0 0 0 0 0 0 0 0 0 0 0 127 0" result="hardAlpha"/>
<feOffset dx="1.04021" dy="2.08042"/>
<feGaussianBlur stdDeviation="3.12064"/>
<feComposite in2="hardAlpha" operator="out"/>
<feColorMatrix type="matrix" values="0 0 0 0 0.298039 0 0 0 0 0.109804 0 0 0 0 0.156863 0 0 0 1 0"/>
<feBlend mode="normal" in2="BackgroundImageFix" result="effect1_dropShadow_1532_1564"/>
<feBlend mode="normal" in="SourceGraphic" in2="effect1_dropShadow_1532_1564" result="shape"/>
</filter>
</defs>
</svg>
