<?xml version="1.0" encoding="utf-8"?>
<!-- Generator: Adobe Illustrator 24.1.1, SVG Export Plug-In . SVG Version: 6.00 Build 0)  -->
<svg version="1.1" id="Layer_1" xmlns="http://www.w3.org/2000/svg" xmlns:xlink="http://www.w3.org/1999/xlink" x="0px" y="0px"
	 viewBox="0 0 248 40" style="enable-background:new 0 0 248 40;" xml:space="preserve">
<style type="text/css">
	.st0{fill:#FFFFFF;}
</style>
<g>
	<g>
		<path class="st0" d="M56.4,11.1v2.5h-4.3v13.1H49V13.5h-4.3V11L56.4,11.1L56.4,11.1z"/>
		<path class="st0" d="M60.9,14.9c0.8-0.4,1.6-0.7,2.5-0.7v3.3h-0.9c-2.3,0-3.4,1.1-3.4,3.2v5.9H56V14.4h3.1v2.3
			C59.6,16,60.2,15.4,60.9,14.9z"/>
		<path class="st0" d="M76.5,14.4v12.2h-3.1v-2.5c-0.3,0.8-0.9,1.5-1.6,1.9c-0.7,0.5-1.6,0.7-2.6,0.7c-1.4,0-2.5-0.5-3.4-1.4
			c-0.8-0.9-1.3-2.2-1.3-3.9v-7.1h3.1v6.8c0,1,0.3,1.7,0.8,2.3c0.5,0.5,1.2,0.8,2,0.8c0.9,0,1.6-0.3,2.1-0.9s0.8-1.4,0.8-2.5v-6.5
			h3.2V14.4z"/>
		<path class="st0" d="M85.9,15.4c0.9,0.8,1.5,1.8,1.7,3h-2.9c-0.1-0.6-0.4-1.1-0.8-1.4c-0.4-0.4-1-0.5-1.6-0.5
			c-0.5,0-0.9,0.1-1.2,0.4c-0.3,0.3-0.4,0.6-0.4,1c0,0.3,0.1,0.6,0.4,0.8c0.2,0.2,0.5,0.4,0.9,0.5s0.9,0.3,1.5,0.4
			c0.9,0.2,1.7,0.4,2.3,0.7c0.6,0.2,1.1,0.6,1.5,1.1s0.6,1.2,0.6,2c0,1-0.4,1.9-1.2,2.5c-0.8,0.6-1.9,1-3.3,1
			c-1.6,0-2.9-0.4-3.8-1.1c-1-0.7-1.5-1.7-1.7-3.1h3c0.1,0.6,0.3,1.1,0.8,1.4s1.1,0.5,1.8,0.5c0.5,0,0.9-0.1,1.2-0.4
			c0.3-0.3,0.4-0.6,0.4-1s-0.1-0.6-0.4-0.9c-0.2-0.2-0.5-0.4-0.9-0.5s-0.9-0.3-1.5-0.4c-0.9-0.2-1.7-0.4-2.2-0.6
			c-0.6-0.2-1.1-0.6-1.5-1c-0.4-0.5-0.6-1.1-0.6-1.9c0-1.1,0.4-1.9,1.2-2.6c0.8-0.7,1.9-1,3.4-1C83.8,14.3,85,14.7,85.9,15.4z"/>
		<path class="st0" d="M95.7,24v2.7H94c-1.4,0-2.4-0.3-3.2-1c-0.7-0.7-1.1-1.8-1.1-3.3v-5.3H88v-2.6h1.7v-3h3.1v3h2.7v2.6h-2.7v5.3
			c0,0.6,0.1,1,0.4,1.2c0.2,0.2,0.6,0.4,1.2,0.4C94.4,24,95.7,24,95.7,24z"/>
		<path class="st0" d="M109.3,24.6c-0.4,0.7-1,1.2-1.8,1.6s-1.7,0.6-2.9,0.6c-1.1,0-2.1-0.2-3-0.6s-1.6-0.9-2.1-1.6
			s-0.8-1.5-0.9-2.5h3.3c0.1,0.6,0.3,1.2,0.8,1.6s1,0.6,1.7,0.6c0.6,0,1.1-0.2,1.5-0.5c0.3-0.3,0.5-0.8,0.5-1.3s-0.1-0.9-0.4-1.2
			c-0.3-0.3-0.6-0.6-1.1-0.8c-0.4-0.2-1-0.4-1.8-0.7c-1-0.3-1.8-0.6-2.4-1c-0.6-0.3-1.1-0.8-1.6-1.4c-0.4-0.6-0.7-1.4-0.7-2.4
			c0-1.3,0.5-2.4,1.4-3.2c1-0.8,2.2-1.2,3.8-1.2c1.7,0,3,0.4,3.9,1.2c1,0.8,1.5,1.9,1.7,3.2h-3.4c-0.1-0.6-0.3-1-0.7-1.4
			c-0.4-0.4-0.9-0.5-1.6-0.5c-0.6,0-1,0.2-1.4,0.5s-0.5,0.7-0.5,1.3c0,0.5,0.1,0.8,0.4,1.1c0.3,0.3,0.6,0.5,1,0.7s1,0.4,1.7,0.6
			c1,0.4,1.8,0.7,2.4,1s1.2,0.8,1.6,1.4s0.7,1.4,0.7,2.4C109.9,23.2,109.7,23.9,109.3,24.6z"/>
		<path class="st0" d="M129,14.4l-3.3,12.2h-3.4l-2.6-8.9l-2.7,8.9h-3.5l-3.3-12.2h3.1l2,9.5l2.7-9.5h3.3l2.7,9.5l2-9.5L129,14.4
			L129,14.4z"/>
		<path class="st0" d="M137,15c0.7,0.5,1.3,1.1,1.6,2v-2.5h3.1v12.2h-3.1v-2.6c-0.3,0.8-0.8,1.5-1.6,2s-1.6,0.7-2.7,0.7
			c-1,0-2-0.3-2.8-0.8s-1.5-1.2-1.9-2.2c-0.5-0.9-0.7-2.1-0.7-3.3c0-1.3,0.2-2.4,0.7-3.3s1.1-1.7,1.9-2.2c0.8-0.5,1.8-0.8,2.8-0.8
			C135.4,14.3,136.3,14.5,137,15z M133,17.9c-0.6,0.6-0.9,1.5-0.9,2.6s0.3,2,0.9,2.6c0.6,0.6,1.4,0.9,2.3,0.9c0.9,0,1.7-0.3,2.3-1
			c0.6-0.6,0.9-1.5,0.9-2.6s-0.3-2-0.9-2.6c-0.6-0.6-1.4-1-2.3-1C134.4,17,133.6,17.3,133,17.9z"/>
		<path class="st0" d="M153.8,15c0.8,0.5,1.5,1.2,1.9,2.2c0.5,0.9,0.7,2.1,0.7,3.3c0,1.3-0.2,2.4-0.7,3.3s-1.1,1.7-1.9,2.2
			c-0.8,0.5-1.8,0.8-2.8,0.8s-1.9-0.2-2.6-0.7c-0.7-0.5-1.3-1.2-1.6-2v8.4h-3.1V14.4h3.1V17c0.3-0.8,0.8-1.5,1.6-2
			c0.7-0.5,1.6-0.7,2.6-0.7S153,14.5,153.8,15z M147.7,18c-0.6,0.6-0.9,1.5-0.9,2.6s0.3,1.9,0.9,2.6c0.6,0.6,1.4,1,2.3,1
			c1,0,1.8-0.3,2.3-0.9c0.6-0.6,0.9-1.5,0.9-2.6s-0.3-2-0.9-2.6c-0.6-0.6-1.4-0.9-2.3-0.9C149.1,17,148.3,17.3,147.7,18z"/>
		<path class="st0" d="M14.9,23.2c-0.6,0.5-1.3,0.9-2.2,1.1c-0.4,0.1-0.7,0.1-1.1,0.1c-2.6,0-4.9-2.1-5.1-4.6
			c-0.2-1.4,0.2-2.8,1.2-4c0.7-0.8,1.6-1.4,2.6-1.6V16l6.6-4.3l-6.6-4.3v1.7c-3.6,0.5-6.6,2.7-8,6.2c-1.6,3.9-0.8,8.1,2.2,11
			c1.9,1.9,4.5,3,7.2,3c2.6,0,6-1.2,7.6-3.5c1.2-1.7,3.6-6.6,4.5-8.3L14.9,23.2z"/>
		<path class="st0" d="M33.7,12.1c-1.9-1.9-4.5-3-7.2-3c-2.6,0-6,1.2-7.6,3.5c-1.2,1.7-3.6,6.6-4.5,8.3l8.7-5.7
			c0.6-0.5,1.3-0.9,2.2-1.1C25.7,14,26,14,26.4,14c2.6,0,4.9,2.1,5.1,4.6c0.2,1.4-0.2,2.8-1.2,4c-0.7,0.8-1.6,1.4-2.6,1.6v-1.8
			l-6.6,4.3l6.6,4.3v-1.7c3.6-0.5,6.6-2.7,8-6.2C37.4,19.2,36.6,15,33.7,12.1z"/>
	</g>
</g>
</svg>
